HIERARCHY
ROOT hip
{
  OFFSET 0 0 0
  CHANNELS 6 Xposition Yposition Zposition Zrotation Yrotation Xrotation
  JOINT abdomen
  {
    OFFSET 0 20.6881 -0.73152
    CHANNELS 3 Zrotation Xrotation Yrotation
    JOINT chest
    {
      OFFSET 0 11.7043 -0.48768
      CHANNELS 3 Zrotation Xrotation Yrotation
      JOINT neck
      {
        OFFSET 0 22.1894 -2.19456
        CHANNELS 3 Zrotation Xrotation Yrotation
        JOINT head
        {
          OFFSET -0.24384 7.07133 1.2192
          CHANNELS 3 Zrotation Xrotation Yrotation
          JOINT leftEye
          {
            OFFSET 4.14528 8.04674 8.04672
            CHANNELS 3 Zrotation Xrotation Yrotation
            End Site
            {
              OFFSET 1 0 0
            }
          }
          JOINT rightEye
          {
            OFFSET -3.6576 8.04674 8.04672
            CHANNELS 3 Zrotation Xrotation Yrotation
            End Site
            {
              OFFSET 1 0 0
            }
          }
        }
      }
      JOINT rCollar
      {
        OFFSET -2.68224 19.2634 -4.8768
        CHANNELS 3 Zrotation Xrotation Yrotation
        JOINT rShldr
        {
          OFFSET -8.77824 -1.95073 1.46304
          CHANNELS 3 Zrotation Xrotation Yrotation
          JOINT rForeArm
          {
            OFFSET -28.1742 -1.7115 0.48768
            CHANNELS 3 Zrotation Xrotation Yrotation
            JOINT rHand
            {
              OFFSET -22.5879 0.773209 7.07136
              CHANNELS 3 Zrotation Xrotation Yrotation
              JOINT rThumb1
              {
                OFFSET -1.2192 -0.487915 3.41376
                CHANNELS 3 Zrotation Xrotation Yrotation
                JOINT rThumb2
                {
                  OFFSET -3.37035 -0.52449 3.41376
                  CHANNELS 3 Zrotation Xrotation Yrotation
                  End Site
                  {
                    OFFSET -1.78271 -1.18214 1.43049
                  }
                }
              }
              JOINT rIndex1
              {
                OFFSET -7.75947 0.938293 5.60832
                CHANNELS 3 Zrotation Xrotation Yrotation
                JOINT rIndex2
                {
                  OFFSET -2.54057 -0.884171 1.56538
                  CHANNELS 3 Zrotation Xrotation Yrotation
                  End Site
                  {
                    OFFSET -1.62519 -0.234802 1.16502
                  }
                }
              }
              JOINT rMid1
              {
                OFFSET -8.24714 1.18213 3.41376
                CHANNELS 3 Zrotation Xrotation Yrotation
                JOINT rMid2
                {
                  OFFSET -3.10165 -0.590103 1.0647
                  CHANNELS 3 Zrotation Xrotation Yrotation
                  End Site
                  {
                    OFFSET -2.48547 -0.328903 0.83742
                  }
                }
              }
              JOINT rRing1
              {
                OFFSET -8.82822 0.546677 1.51678
                CHANNELS 3 Zrotation Xrotation Yrotation
                JOINT rRing2
                {
                  OFFSET -2.60934 -0.819778 -0.0198488
                  CHANNELS 3 Zrotation Xrotation Yrotation
                  End Site
                  {
                    OFFSET -2.33842 -0.294052 0.168128
                  }
                }
              }
              JOINT rPinky1
              {
                OFFSET -8.27202 -0.0477905 -0.4584
                CHANNELS 3 Zrotation Xrotation Yrotation
                JOINT rPinky2
                {
                  OFFSET -1.82734 -0.647385 -0.700984
                  CHANNELS 3 Zrotation Xrotation Yrotation
                  End Site
                  {
                    OFFSET -1.69225 -0.51767 -0.607171
                  }
                }
              }
            }
          }
        }
      }
      JOINT lCollar
      {
        OFFSET 2.68224 19.2634 -4.8768
        CHANNELS 3 Zrotation Xrotation Yrotation
        JOINT lShldr
        {
          OFFSET 8.77824 -1.95073 1.46304
          CHANNELS 3 Zrotation Xrotation Yrotation
          JOINT lForeArm
          {
            OFFSET 28.1742 -1.7115 0.48768
            CHANNELS 3 Zrotation Xrotation Yrotation
            JOINT lHand
            {
              OFFSET 22.5879 0.773209 7.07136
              CHANNELS 3 Zrotation Xrotation Yrotation
              JOINT lThumb1
              {
                OFFSET 1.2192 -0.487915 3.41376
                CHANNELS 3 Zrotation Xrotation Yrotation
                JOINT lThumb2
                {
                  OFFSET 3.37035 -0.52449 3.41376
                  CHANNELS 3 Zrotation Xrotation Yrotation
                  End Site
                  {
                    OFFSET 1.78271 -1.18214 1.43049
                  }
                }
              }
              JOINT lIndex1
              {
                OFFSET 7.75947 0.938293 5.60832
                CHANNELS 3 Zrotation Xrotation Yrotation
                JOINT lIndex2
                {
                  OFFSET 2.54057 -0.884171 1.56538
                  CHANNELS 3 Zrotation Xrotation Yrotation
                  End Site
                  {
                    OFFSET 1.62519 -0.234802 1.16502
                  }
                }
              }
              JOINT lMid1
              {
                OFFSET 8.24714 1.18213 3.41376
                CHANNELS 3 Zrotation Xrotation Yrotation
                JOINT lMid2
                {
                  OFFSET 3.10165 -0.590103 1.0647
                  CHANNELS 3 Zrotation Xrotation Yrotation
                  End Site
                  {
                    OFFSET 2.48547 -0.328903 0.83742
                  }
                }
              }
              JOINT lRing1
              {
                OFFSET 8.82822 0.546677 1.51678
                CHANNELS 3 Zrotation Xrotation Yrotation
                JOINT lRing2
                {
                  OFFSET 2.60934 -0.819778 -0.0198488
                  CHANNELS 3 Zrotation Xrotation Yrotation
                  End Site
                  {
                    OFFSET 2.33842 -0.294052 0.168128
                  }
                }
              }
              JOINT lPinky1
              {
                OFFSET 8.27202 -0.0477905 -0.4584
                CHANNELS 3 Zrotation Xrotation Yrotation
                JOINT lPinky2
                {
                  OFFSET 1.82734 -0.647385 -0.700984
                  CHANNELS 3 Zrotation Xrotation Yrotation
                  End Site
                  {
                    OFFSET 1.69225 -0.51767 -0.607171
                  }
                }
              }
            }
          }
        }
      }
    }
  }
  JOINT rButtock
  {
    OFFSET -8.77824 4.35084 1.2192
    CHANNELS 3 Zrotation Xrotation Yrotation
    JOINT rThigh
    {
      OFFSET 0 -1.70687 -2.19456
      CHANNELS 3 Zrotation Xrotation Yrotation
      JOINT rShin
      {
        OFFSET 0 -36.8199 0.73152
        CHANNELS 3 Zrotation Xrotation Yrotation
        JOINT rFoot
        {
          OFFSET 0.73152 -45.1104 -5.12064
          CHANNELS 3 Zrotation Xrotation Yrotation
          End Site
          {
            OFFSET -1.1221 -3.69964 12.103
          }
        }
      }
    }
  }
  JOINT lButtock
  {
    OFFSET 8.77824 4.35084 1.2192
    CHANNELS 3 Zrotation Xrotation Yrotation
    JOINT lThigh
    {
      OFFSET 0 -1.70687 -2.19456
      CHANNELS 3 Zrotation Xrotation Yrotation
      JOINT lShin
      {
        OFFSET 0 -36.8199 0.73152
        CHANNELS 3 Zrotation Xrotation Yrotation
        JOINT lFoot
        {
          OFFSET -0.73152 -45.1104 -5.12064
          CHANNELS 3 Zrotation Xrotation Yrotation
          End Site
          {
            OFFSET 1.1221 -3.69964 12.103
          }
        }
      }
    }
  }
}
MOTION
Frames:	6
Frame Time:	0.00833333
-1.88809 82.4855 47.7605 0.0 0.0 0.0 -4.35894 0.00629241 -0.117455 -1.20158 0.0324762 -0.207681 1.1422e-13 2.38542e-15 -1.14301e-15 3.43621e-13 9.54166e-15 -3.28461e-15 -0.0 0.0 0.0 -0.0 0.0 0.0 5.76026e-14 7.21759e-16 -4.47265e-16 1.20073e-12 1.52505e-14 -7.15625e-15 2.07057e-11 -5.68027e-12 -4.13472e-13 2.37035e-10 8.93604e-12 -1.9465e-12 5.59145e-10 7.0591e-12 -5.15886e-12 9.6563e-10 1.21847e-11 -8.94292e-12 5.59153e-10 7.06242e-12 -5.17794e-12 7.73091 5.47488 0.417314 5.59145e-10 7.05894e-12 -5.16204e-12 2.90554 0.965183 0.102902 5.59155e-10 7.05934e-12 -5.1684e-12 10.2786 0.731801 0.0259123 5.59142e-10 7.06043e-12 -5.16204e-12 2.22167 -0.733487 -0.20892 5.74976e-14 7.19041e-16 -7.45443e-16 1.19733e-12 1.49461e-14 -8.74653e-15 2.07112e-11 6.69805e-12 -4.07111e-13 2.37017e-10 -3.45945e-12 -1.94332e-12 5.59128e-10 7.02541e-12 -5.15886e-12 9.65607e-10 1.21338e-11 -8.93259e-12 5.59121e-10 7.02664e-12 -5.15568e-12 -7.73091 5.47488 -0.417314 5.59128e-10 7.02535e-12 -5.16204e-12 -2.90554 0.965183 -0.102902 5.59124e-10 7.02555e-12 -5.16204e-12 -10.2786 0.731801 -0.0259123 5.59131e-10 7.02664e-12 -5.17158e-12 -2.22167 -0.733487 0.20892 -2.03217e-16 0.0 -3.88251e-19 -2.88815 -1.94435 0.0304155 -0.00797267 -2.07874 -0.0650932 -0.422293 4.00217 0.127121 2.03217e-16 0.0 3.88251e-19 -3.72547 -11.2507 0.483808 -0.0143127 14.7725 -0.388792 0.544933 -3.54242 0.0125014
-3.82092 82.2006 45.9954 -7.1934 -3.8752 7.5168 -2.67307 -2.53174 0.343864 -1.34626 -2.72917 -0.161218 -3.05795 4.20867 -3.41221 4.65188 -2.25853 -6.52624 -0.0 0.0 0.0 -0.0 0.0 0.0 1.01807e-13 -3.64384e-14 3.11921e-15 22.8536 10.3228 -2.40443 -5.10033 -2.52466 7.72852 0.102602 7.11882 0.972859 -2.05059e-10 1.35067e-09 -5.40139e-10 -3.65452e-10 2.32241e-09 -9.18783e-10 -2.05052e-10 1.35068e-09 -5.40155e-10 7.73091 5.47488 0.417314 -2.0506e-10 1.35067e-09 -5.40141e-10 2.90554 0.965183 0.102902 -2.05049e-10 1.35067e-09 -5.40148e-10 10.2786 0.731801 0.0259123 -2.05062e-10 1.35068e-09 -5.40144e-10 2.22167 -0.733487 -0.20892 1.01648e-13 -3.64383e-14 2.83113e-15 -23.3776 8.66479 3.02633 4.9657 -2.42774 -7.56082 -0.000168164 0.289131 -0.0406329 1.2695e-10 -7.74627e-10 -6.48438e-10 2.1802e-10 -1.33953e-09 -1.12148e-09 1.26944e-10 -7.74627e-10 -6.4843e-10 -7.73091 5.47488 -0.417314 1.2695e-10 -7.74627e-10 -6.4844e-10 -2.90554 0.965183 -0.102902 1.26944e-10 -7.74626e-10 -6.4844e-10 -10.2786 0.731801 -0.0259123 1.26952e-10 -7.74625e-10 -6.48447e-10 -2.22167 -0.733487 0.20892 -2.03217e-16 0.0 -3.88251e-19 -1.61038 -2.41792 6.58871 0.00357416 -1.84401 0.0371519 -0.763644 1.36304 -5.27416 2.03217e-16 0.0 3.88251e-19 -4.29308 -9.5143 -10.9841 -0.0114709 14.0641 -0.294924 1.25413 -8.36419 13.6283
-3.83222 82.2047 46.006 -7.2662 -3.8048 7.4636 -0.834032 -5.20494 0.831774 -1.49228 -5.64399 -0.113004 -5.73797 8.61254 -7.07754 9.00864 -4.57035 -13.4499 -0.0 0.0 0.0 -0.0 0.0 0.0 1.47072e-13 -7.65173e-14 3.59676e-15 48.0046 21.1442 -5.21981 -9.75206 -5.03516 15.9368 -0.0600589 14.663 2.05611 -1.04484e-09 2.79201e-09 -1.0987e-09 -1.82771e-09 4.79971e-09 -1.86778e-09 -1.04484e-09 2.79201e-09 -1.09872e-09 7.73091 5.47488 0.417314 -1.04484e-09 2.79201e-09 -1.09871e-09 2.90554 0.965183 0.102902 -1.04483e-09 2.79201e-09 -1.09871e-09 10.2786 0.731801 0.0259123 -1.04484e-09 2.79201e-09 -1.09871e-09 2.22167 -0.733487 -0.20892 1.46853e-13 -7.65141e-14 3.31722e-15 -49.1298 17.7088 6.4676 9.52154 -4.85066 -15.592 0.000100071 0.591413 -0.0831175 -2.87223e-10 -1.5693e-09 -1.35958e-09 -4.98507e-10 -2.71388e-09 -2.35162e-09 -2.87229e-10 -1.56931e-09 -1.35957e-09 -7.73091 5.47488 -0.417314 -2.87223e-10 -1.5693e-09 -1.35958e-09 -2.90554 0.965183 -0.102902 -2.8723e-10 -1.5693e-09 -1.35959e-09 -10.2786 0.731801 -0.0259123 -2.87221e-10 -1.5693e-09 -1.35959e-09 -2.22167 -0.733487 0.20892 -2.03217e-16 0.0 -3.88251e-19 -0.133287 -2.86639 13.5228 0.0149206 -1.59382 0.145261 -1.66165 -1.38793 -10.9756 2.03217e-16 0.0 3.88251e-19 -4.13485 -7.39921 -22.9808 -0.00590671 13.3142 -0.196287 4.44385 -12.3295 28.4303
-3.83029 82.204 46.0072 -7.2696 -3.7595 7.4554 0.822156 -7.60607 1.27673 -1.62216 -8.2525 -0.0684539 -7.64826 12.4449 -10.4574 12.4373 -6.42434 -19.6921 -0.0 0.0 0.0 -0.0 0.0 0.0 1.90217e-13 -1.10759e-13 1.02522e-14 71.5119 30.7317 -8.26335 -13.3069 -7.02395 23.3484 -0.462438 21.3309 3.10927 -1.73347e-09 4.0379e-09 -1.6101e-09 -3.02762e-09 6.94287e-09 -2.73846e-09 -1.73346e-09 4.03791e-09 -1.61011e-09 7.73091 5.47488 0.417314 -1.73347e-09 4.0379e-09 -1.6101e-09 2.90554 0.965183 0.102902 -1.73346e-09 4.03791e-09 -1.61011e-09 10.2786 0.731801 0.0259123 -1.73347e-09 4.03791e-09 -1.61011e-09 2.22167 -0.733487 -0.20892 1.89948e-13 -1.10753e-13 9.98427e-15 -73.1207 25.688 9.96913 13.0195 -6.77701 -22.8304 0.000725897 0.867391 -0.121911 -7.37406e-10 -2.33793e-09 -1.935e-09 -1.27715e-09 -4.04284e-09 -3.34659e-09 -7.37412e-10 -2.33793e-09 -1.93498e-09 -7.73091 5.47488 -0.417314 -7.37405e-10 -2.33793e-09 -1.935e-09 -2.90554 0.965183 -0.102902 -7.37415e-10 -2.33793e-09 -1.935e-09 -10.2786 0.731801 -0.0259123 -7.37404e-10 -2.33793e-09 -1.935e-09 -2.22167 -0.733487 0.20892 -2.03217e-16 0.0 -3.88251e-19 1.26074 -3.21349 19.72 0.0241538 -1.37454 0.241568 -2.92215 -3.74531 -16.1069 2.03217e-16 0.0 3.88251e-19 -3.355 -5.47312 -33.616 0.00134564 12.6472 -0.109015 9.00852 -14.1463 41.9607
-3.81813 82.1914 46.0117 -7.0987 -3.7377 7.5743 1.93563 -9.32866 1.60471 -1.72078 -10.0952 -0.0332194 -8.71943 15.0205 -12.9124 14.6277 -7.47438 -24.1182 -0.0 0.0 0.0 -0.0 0.0 0.0 2.28059e-13 -1.30407e-13 3.23522e-14 88.7429 37.4544 -10.9119 -15.4955 -8.2268 28.6147 -0.89506 25.8331 3.90143 -2.0442e-09 4.79522e-09 -2.00357e-09 -3.57165e-09 8.25067e-09 -3.41335e-09 -2.0442e-09 4.79522e-09 -2.00358e-09 7.73091 5.47488 0.417314 -2.0442e-09 4.79522e-09 -2.00357e-09 2.90554 0.965183 0.102902 -2.04419e-09 4.79522e-09 -2.00358e-09 10.2786 0.731801 0.0259123 -2.04421e-09 4.79522e-09 -2.00358e-09 2.22167 -0.733487 -0.20892 2.27769e-13 -1.304e-13 3.21037e-14 -90.5378 31.2937 12.7949 15.1736 -7.94153 -27.9468 0.00142442 1.07761 -0.151466 -1.27761e-09 -3.04143e-09 -2.17108e-09 -2.2111e-09 -5.2583e-09 -3.75363e-09 -1.27762e-09 -3.04143e-09 -2.17106e-09 -7.73091 5.47488 -0.417314 -1.27761e-09 -3.04143e-09 -2.17108e-09 -2.90554 0.965183 -0.102902 -1.27762e-09 -3.04143e-09 -2.17108e-09 -10.2786 0.731801 -0.0259123 -1.27761e-09 -3.04143e-09 -2.17108e-09 -2.22167 -0.733487 0.20892 -2.03217e-16 0.0 -3.88251e-19 2.2343 -3.43091 24.064 0.0299146 -1.23252 0.308419 -4.05787 -5.30586 -19.7579 2.03217e-16 0.0 3.88251e-19 -2.51809 -4.21663 -41.0323 0.00778172 12.1874 -0.0489063 12.791 -14.1573 51.4053
-3.80184 82.1807 46.0194 -6.947 -3.6799 7.6575 2.2269 -10.1153 1.76653 -1.78268 -10.8722 -0.00996308 -9.11513 15.9577 -13.9335 15.5474 -7.60767 -25.9514 -0.0 0.0 0.0 -0.0 0.0 0.0 2.68256e-13 -1.33538e-13 8.60706e-14 95.907 40.3956 -12.1786 -16.342 -8.69269 30.8115 -1.07453 27.2764 4.17643 -1.77707e-09 4.9346e-09 -2.30535e-09 -3.11418e-09 8.50589e-09 -3.94212e-09 -1.77707e-09 4.9346e-09 -2.30536e-09 7.73091 5.47488 0.417314 -1.77707e-09 4.9346e-09 -2.30535e-09 2.90554 0.965183 0.102902 -1.77706e-09 4.9346e-09 -2.30535e-09 10.2786 0.731801 0.0259123 -1.77707e-09 4.9346e-09 -2.30535e-09 2.22167 -0.733487 -0.20892 2.67983e-13 -1.33533e-13 8.58571e-14 -97.5867 33.8542 14.0407 15.9964 -8.38319 -30.0517 0.00206553 1.1131 -0.156478 -2.10883e-09 -3.84577e-09 -1.89823e-09 -3.64771e-09 -6.64648e-09 -3.27831e-09 -2.10883e-09 -3.84578e-09 -1.89821e-09 -7.73091 5.47488 -0.417314 -2.10883e-09 -3.84578e-09 -1.89823e-09 -2.90554 0.965183 -0.102902 -2.10884e-09 -3.84578e-09 -1.89823e-09 -10.2786 0.731801 -0.0259123 -2.10882e-09 -3.84577e-09 -1.89823e-09 -2.22167 -0.733487 0.20892 -2.03217e-16 0.0 -3.88251e-19 2.51481 -3.54347 25.8136 0.0315389 -1.20206 0.333977 -4.57482 -5.90073 -21.2944 2.03217e-16 0.0 3.88251e-19 -2.24774 -3.81139 -43.9893 0.0109782 12.0208 -0.0264061 14.292 -13.8185 55.0627
